<svg width="1298" height="60" viewBox="0 0 1298 60" fill="none" xmlns="http://www.w3.org/2000/svg">
<path d="M27.1809 59.9409C27.1622 59.9106 26.8094 59.8779 26.3971 59.8683C25.9847 59.8584 25.2547 59.785 24.7749 59.7051C20.5702 59.0045 16.3204 57.4796 13.4889 55.6556C12.9657 55.3185 12.8461 55.1884 12.9321 55.0493C12.9947 54.9482 13.2026 54.9996 14.4143 55.4155C14.9941 55.6145 15.8939 55.8695 16.4137 55.9822C17.2932 56.1727 17.4726 56.1869 18.9948 56.187C21.2785 56.187 22.0607 56.0577 24.5484 55.269C29.2868 53.7666 30.4723 53.76 35.1793 55.2091C37.8827 56.0415 38.946 56.2254 41.0505 56.2247C42.5817 56.2243 44.0207 55.9545 45.7505 55.3432C46.2103 55.1808 46.6727 55.0317 46.7779 55.012C46.9836 54.9735 47.0835 55.0604 47.0209 55.2232C46.9254 55.472 44.5079 56.8218 43.0241 57.4548C40.1304 58.6891 35.643 59.8322 33.5718 59.8625C33.1513 59.8687 32.7889 59.9033 32.7665 59.9397C32.717 60.0193 27.2301 60.0205 27.1809 59.9409ZM16.3409 54.0733C12.5739 53.5173 9.30804 51.8135 6.5237 48.9516C5.00699 47.3927 3.88666 45.7769 2.75711 43.5188C1.27915 40.5645 0.226076 36.7539 0.0455478 33.7061C-0.0161067 32.666 -0.014798 26.8854 0.04722 25.897C0.173655 23.8829 0.910019 20.9255 1.92325 18.3621C2.312 17.3785 3.34297 15.2343 3.83642 14.3832C3.98692 14.1235 4.14775 13.8457 4.19385 13.7658C5.18751 12.0402 7.09669 9.62045 8.78347 7.94873C10.3124 6.43349 11.7774 5.24993 13.5417 4.1048C14.0815 3.75444 14.605 3.41201 14.705 3.3438C15.0745 3.09173 17.3128 1.95851 18.1307 1.60932C19.9436 0.835313 22.0153 0.156835 22.6325 0.135042C22.8342 0.12785 23.0161 0.0945802 23.0369 0.0610195C23.0576 0.0274588 23.2457 0 23.4548 0C23.7763 0 23.8365 0.0212842 23.8453 0.138238C23.8538 0.251124 23.7395 0.312434 23.2246 0.471666C21.068 1.1383 18.592 2.31692 16.2042 3.81372C14.4102 4.93822 12.3072 6.69711 10.5681 8.52755C6.11284 13.217 3.52037 18.857 2.73151 25.5772C2.57774 26.8873 2.55746 30.3642 2.69654 31.5993C3.54967 39.1805 6.82746 45.1894 11.6878 48.0823C13.5021 49.1622 15.4951 49.7334 17.7223 49.8119C19.5274 49.8753 20.6818 49.6384 23.9467 48.5345C27.0168 47.4966 27.8481 47.2771 29.1928 47.1498C30.0903 47.0648 31.1528 47.1418 32.1942 47.3672C32.8148 47.5016 35.4005 48.3078 36.8075 48.8057C38.9725 49.5719 40.5767 49.8698 42.2241 49.8119C44.9235 49.7169 47.286 48.8951 49.4339 47.304C53.6459 44.1837 56.49 38.4675 57.2477 31.5995C57.3711 30.4813 57.3722 27.0844 57.2495 25.9334C56.7085 20.8555 55.2103 16.5486 52.6128 12.6036C50.0636 8.73196 46.4511 5.32707 42.4422 3.01741C40.7999 2.07132 38.3112 0.964181 36.7166 0.470577C36.2121 0.314396 36.0805 0.245386 36.0805 0.136858C36.0805 0.0214295 36.1364 0.000145285 36.4396 0.000145285C36.6372 0.000145285 36.8155 0.0271682 36.836 0.0602204C36.8564 0.0932 37.0589 0.127778 37.2859 0.136931C38.3045 0.178119 41.5517 1.38529 43.763 2.54488C50.8293 6.25043 55.9943 12.3048 58.5982 19.9349C59.2764 21.9221 59.8357 24.4856 59.8595 25.7154C59.8669 26.0964 59.9096 26.4525 59.9549 26.5103C60.0191 26.5922 60.0156 26.6022 59.9388 26.556C59.8592 26.5082 59.8563 26.5263 59.9234 26.6514C60.0243 26.8397 59.9855 32.1766 59.8703 33.9603C59.784 35.2981 59.5495 36.635 59.0933 38.3914C57.5673 44.2664 54.404 48.9458 50.1126 51.6766C48.5839 52.6494 46.3338 53.5596 44.581 53.9143C43.8475 54.0627 43.5433 54.0822 41.9696 54.0822C39.5962 54.0822 38.4446 53.8865 35.2079 52.9326C31.8053 51.9298 31.3616 51.837 29.9731 51.837C28.5844 51.837 28.1397 51.9301 24.7383 52.9327C21.6163 53.8529 20.5238 54.0466 18.2675 54.0802C17.3278 54.0941 16.4608 54.0911 16.3409 54.0733ZM16.5954 47.3661C15.1403 47.2073 13.9619 46.8565 12.5602 46.1651C10.6644 45.2298 9.06746 43.7643 7.69143 41.6967C7.04071 40.7189 6.4691 39.6746 6.51687 39.5504C6.59539 39.3459 6.8716 39.4466 7.28733 39.8311C8.196 40.6715 10.2789 42.2052 10.5118 42.2052C10.5525 42.2052 10.6374 42.2517 10.7005 42.3082C10.8557 42.4474 12.0699 42.9759 12.742 43.1967C14.0902 43.6397 15.8305 43.8436 17.2861 43.729C18.9945 43.5947 20.2113 43.3071 22.121 42.5865C25.1308 41.4509 26.7375 41.0548 28.9783 40.8961C30.6464 40.7779 32.603 40.9664 34.3719 41.4159C35.227 41.6332 36.1761 41.944 37.6074 42.4754C39.1577 43.0512 40.0205 43.3104 41.0322 43.5046C44.4239 44.1555 47.5417 43.5563 50.3309 41.7174C51.176 41.1602 52.3921 40.2012 52.8358 39.7422C53.1323 39.4354 53.4259 39.3517 53.503 39.5522C53.5778 39.7469 52.4918 41.5776 51.649 42.6773C51.1851 43.2828 50.1748 44.3224 49.5674 44.8193C48.0995 46.0202 46.212 46.8889 44.2599 47.2618C43.3573 47.4343 41.1923 47.4359 40.1884 47.2648C39.0751 47.0752 37.9092 46.7437 36.5895 46.2419C33.6604 45.1281 32.1823 44.8049 30.0096 44.8028C29.075 44.802 28.5555 44.8394 27.8793 44.9559C26.2664 45.2341 25.629 45.4238 22.8706 46.4478C21.8655 46.8209 20.8728 47.0866 19.8661 47.2518C19.0321 47.3889 17.3435 47.4479 16.5954 47.3661Z" fill="white"/>
<path d="M24.9209 35.5078L17.4323 17.6227C16.9007 16.3915 16.3691 15.5382 15.8375 15.063C15.3059 14.5878 14.6934 14.307 14 14.2206V13.5726C14.0925 13.5726 14.3236 13.5618 14.6934 13.5402C15.0401 13.5186 15.2943 13.5078 15.4561 13.5078C16.2651 13.5078 17.0971 13.5942 17.9523 13.767C18.8075 13.9182 19.6165 14.2854 20.3792 14.8686C21.1419 15.4518 21.7891 16.3699 22.3207 17.6227L27.0011 28.8009L30.1213 20.5063L28.9079 17.6227C28.3763 16.3915 27.7985 15.5382 27.1744 15.063C26.5735 14.5878 25.9263 14.307 25.2329 14.2206V13.5726C25.3254 13.5726 25.5334 13.5618 25.857 13.5402C26.1806 13.5186 26.4233 13.5078 26.585 13.5078C27.394 13.5078 28.2261 13.5942 29.0813 13.767C29.9364 13.9398 30.7454 14.3178 31.5081 14.901C32.2709 15.4626 32.918 16.3699 33.4496 17.6227L38.4074 29.4165L44.3359 13.8318H46L37.7833 35.5078H36.3965L31.0574 22.8068L26.3077 35.5078H24.9209Z" fill="white"/>
<path d="M276.254 35H275.092V25.662H281.21V26.698H276.254V35ZM280.555 35.168V34.3C280.872 34.3 281.133 34.09 281.339 33.67C281.544 33.25 281.712 32.55 281.843 31.57L282.277 28.238H286.981V35H285.931V29.162H283.201L282.893 31.696C282.743 32.9373 282.482 33.8287 282.109 34.37C281.735 34.902 281.217 35.168 280.555 35.168ZM294.355 35H293.305V34.23C292.736 34.8553 291.989 35.168 291.065 35.168C290.44 35.168 289.889 34.9673 289.413 34.566C288.937 34.1647 288.699 33.6187 288.699 32.928C288.699 32.2187 288.933 31.6727 289.399 31.29C289.875 30.898 290.431 30.702 291.065 30.702C292.027 30.702 292.773 31.01 293.305 31.626V30.408C293.305 29.96 293.147 29.61 292.829 29.358C292.512 29.106 292.101 28.98 291.597 28.98C290.804 28.98 290.113 29.2927 289.525 29.918L289.035 29.19C289.754 28.4433 290.655 28.07 291.737 28.07C292.512 28.07 293.142 28.2567 293.627 28.63C294.113 29.0033 294.355 29.5773 294.355 30.352V35ZM291.443 34.412C292.283 34.412 292.904 34.132 293.305 33.572V32.298C292.904 31.738 292.283 31.458 291.443 31.458C290.958 31.458 290.557 31.598 290.239 31.878C289.931 32.1487 289.777 32.5033 289.777 32.942C289.777 33.3713 289.931 33.726 290.239 34.006C290.557 34.2767 290.958 34.412 291.443 34.412ZM300.254 35H296.46V28.238H300.184C300.772 28.238 301.234 28.3967 301.57 28.714C301.915 29.0313 302.088 29.4513 302.088 29.974C302.088 30.3567 301.981 30.688 301.766 30.968C301.561 31.2387 301.304 31.4207 300.996 31.514C301.341 31.598 301.631 31.7987 301.864 32.116C302.107 32.4333 302.228 32.7833 302.228 33.166C302.228 33.7167 302.051 34.16 301.696 34.496C301.351 34.832 300.87 35 300.254 35ZM300.044 34.076C300.38 34.076 300.646 33.9827 300.842 33.796C301.038 33.6093 301.136 33.3573 301.136 33.04C301.136 32.7507 301.038 32.5033 300.842 32.298C300.646 32.0927 300.38 31.99 300.044 31.99H297.51V34.076H300.044ZM300.002 31.066C300.319 31.066 300.567 30.982 300.744 30.814C300.921 30.6367 301.01 30.408 301.01 30.128C301.01 29.8293 300.921 29.596 300.744 29.428C300.567 29.2507 300.319 29.162 300.002 29.162H297.51V31.066H300.002ZM305.262 35H304.212V28.238H305.262V31.052H308.79V28.238H309.84V35H308.79V31.976H305.262V35ZM317.215 35H316.165V34.23C315.595 34.8553 314.849 35.168 313.925 35.168C313.299 35.168 312.749 34.9673 312.273 34.566C311.797 34.1647 311.559 33.6187 311.559 32.928C311.559 32.2187 311.792 31.6727 312.259 31.29C312.735 30.898 313.29 30.702 313.925 30.702C314.886 30.702 315.633 31.01 316.165 31.626V30.408C316.165 29.96 316.006 29.61 315.689 29.358C315.371 29.106 314.961 28.98 314.457 28.98C313.663 28.98 312.973 29.2927 312.385 29.918L311.895 29.19C312.613 28.4433 313.514 28.07 314.597 28.07C315.371 28.07 316.001 28.2567 316.487 28.63C316.972 29.0033 317.215 29.5773 317.215 30.352V35ZM314.303 34.412C315.143 34.412 315.763 34.132 316.165 33.572V32.298C315.763 31.738 315.143 31.458 314.303 31.458C313.817 31.458 313.416 31.598 313.099 31.878C312.791 32.1487 312.637 32.5033 312.637 32.942C312.637 33.3713 312.791 33.726 313.099 34.006C313.416 34.2767 313.817 34.412 314.303 34.412ZM320.328 35H319.096L320.902 32.34C320.388 32.2747 319.968 32.06 319.642 31.696C319.324 31.332 319.166 30.87 319.166 30.31C319.166 29.7127 319.357 29.218 319.74 28.826C320.122 28.434 320.645 28.238 321.308 28.238H324.878V35H323.828V32.382H321.98L320.328 35ZM321.42 31.458H323.828V29.162H321.42C321.056 29.162 320.766 29.2693 320.552 29.484C320.346 29.6893 320.244 29.9647 320.244 30.31C320.244 30.6553 320.346 30.9353 320.552 31.15C320.757 31.3553 321.046 31.458 321.42 31.458Z" fill="white"/>
<path d="M381.516 35.168C380.153 35.168 379.01 34.72 378.086 33.824C377.171 32.9187 376.714 31.7567 376.714 30.338C376.714 28.9193 377.171 27.762 378.086 26.866C379.01 25.9607 380.153 25.508 381.516 25.508C383.009 25.508 384.19 26.124 385.058 27.356L384.078 27.902C383.807 27.5007 383.443 27.174 382.986 26.922C382.529 26.67 382.039 26.544 381.516 26.544C380.489 26.544 379.631 26.9033 378.94 27.622C378.259 28.3313 377.918 29.2367 377.918 30.338C377.918 31.4393 378.259 32.3493 378.94 33.068C379.631 33.7773 380.489 34.132 381.516 34.132C382.039 34.132 382.529 34.0107 382.986 33.768C383.443 33.516 383.807 33.1847 384.078 32.774L385.072 33.32C384.167 34.552 382.981 35.168 381.516 35.168ZM389.563 35.168C388.555 35.168 387.729 34.8413 387.085 34.188C386.441 33.5253 386.119 32.6667 386.119 31.612C386.119 30.6227 386.436 29.7873 387.071 29.106C387.706 28.4153 388.499 28.07 389.451 28.07C390.45 28.07 391.238 28.4153 391.817 29.106C392.405 29.7873 392.699 30.6507 392.699 31.696V31.962H387.225C387.272 32.6247 387.514 33.18 387.953 33.628C388.392 34.076 388.961 34.3 389.661 34.3C390.501 34.3 391.196 34.0153 391.747 33.446L392.251 34.132C391.56 34.8227 390.664 35.168 389.563 35.168ZM391.663 31.192C391.654 30.6133 391.458 30.0953 391.075 29.638C390.692 29.1713 390.146 28.938 389.437 28.938C388.765 28.938 388.233 29.1667 387.841 29.624C387.458 30.0813 387.253 30.604 387.225 31.192H391.663ZM399.678 35H398.628V34.23C398.058 34.8553 397.312 35.168 396.388 35.168C395.762 35.168 395.212 34.9673 394.736 34.566C394.26 34.1647 394.022 33.6187 394.022 32.928C394.022 32.2187 394.255 31.6727 394.722 31.29C395.198 30.898 395.753 30.702 396.388 30.702C397.349 30.702 398.096 31.01 398.628 31.626V30.408C398.628 29.96 398.469 29.61 398.152 29.358C397.834 29.106 397.424 28.98 396.92 28.98C396.126 28.98 395.436 29.2927 394.848 29.918L394.358 29.19C395.076 28.4433 395.977 28.07 397.06 28.07C397.834 28.07 398.464 28.2567 398.95 28.63C399.435 29.0033 399.678 29.5773 399.678 30.352V35ZM396.766 34.412C397.606 34.412 398.226 34.132 398.628 33.572V32.298C398.226 31.738 397.606 31.458 396.766 31.458C396.28 31.458 395.879 31.598 395.562 31.878C395.254 32.1487 395.1 32.5033 395.1 32.942C395.1 33.3713 395.254 33.726 395.562 34.006C395.879 34.2767 396.28 34.412 396.766 34.412ZM402.832 35H401.782V28.238H402.832V31.052H406.36V28.238H407.41V35H406.36V31.976H402.832V35ZM412.489 35.168C411.49 35.168 410.678 34.832 410.053 34.16C409.428 33.4787 409.115 32.6293 409.115 31.612C409.115 30.5947 409.428 29.75 410.053 29.078C410.678 28.406 411.49 28.07 412.489 28.07C413.534 28.07 414.36 28.462 414.967 29.246L414.267 29.89C413.838 29.302 413.264 29.008 412.545 29.008C411.836 29.008 411.266 29.2507 410.837 29.736C410.417 30.2213 410.207 30.8467 410.207 31.612C410.207 32.3773 410.417 33.0073 410.837 33.502C411.266 33.9873 411.836 34.23 412.545 34.23C413.254 34.23 413.828 33.936 414.267 33.348L414.967 33.992C414.36 34.776 413.534 35.168 412.489 35.168ZM416.439 28.238H417.489V30.856H420.023C420.695 30.856 421.217 31.0567 421.591 31.458C421.964 31.85 422.151 32.34 422.151 32.928C422.151 33.516 421.959 34.0107 421.577 34.412C421.203 34.804 420.685 35 420.023 35H416.439V28.238ZM419.911 31.78H417.489V34.076H419.911C420.284 34.076 420.569 33.9733 420.765 33.768C420.97 33.5533 421.073 33.2733 421.073 32.928C421.073 32.5827 420.97 32.3073 420.765 32.102C420.569 31.8873 420.284 31.78 419.911 31.78ZM424.307 35H423.257V28.238H424.307V35Z" fill="white"/>
<path d="M481.348 35.168C479.976 35.168 478.861 34.7107 478.002 33.796C477.143 32.8813 476.714 31.7287 476.714 30.338C476.714 28.9473 477.143 27.7947 478.002 26.88C478.861 25.9653 479.976 25.508 481.348 25.508C482.711 25.508 483.821 25.9653 484.68 26.88C485.548 27.7947 485.982 28.9473 485.982 30.338C485.982 31.7287 485.548 32.8813 484.68 33.796C483.821 34.7107 482.711 35.168 481.348 35.168ZM481.348 34.132C482.375 34.132 483.201 33.7773 483.826 33.068C484.461 32.3493 484.778 31.4393 484.778 30.338C484.778 29.2273 484.461 28.3173 483.826 27.608C483.201 26.8987 482.375 26.544 481.348 26.544C480.312 26.544 479.481 26.8987 478.856 27.608C478.231 28.3173 477.918 29.2273 477.918 30.338C477.918 31.4393 478.231 32.3493 478.856 33.068C479.481 33.7773 480.312 34.132 481.348 34.132ZM490.037 35H488.987V29.162H487.027V28.238H492.011V29.162H490.037V35ZM495.782 35.168C494.485 35.168 493.467 34.7993 492.73 34.062L493.248 33.39C493.883 33.9967 494.727 34.3 495.782 34.3C496.389 34.3 496.869 34.1927 497.224 33.978C497.588 33.7633 497.77 33.4787 497.77 33.124C497.77 32.3773 497.061 32.004 495.642 32.004H494.13V31.15H495.642C496.23 31.15 496.711 31.0567 497.084 30.87C497.457 30.674 497.644 30.3893 497.644 30.016C497.644 29.6987 497.457 29.442 497.084 29.246C496.711 29.0407 496.239 28.938 495.67 28.938C494.727 28.938 493.971 29.2273 493.402 29.806L492.856 29.162C493.556 28.4433 494.48 28.084 495.628 28.084C496.552 28.0747 497.299 28.2333 497.868 28.56C498.447 28.8773 498.736 29.3207 498.736 29.89C498.736 30.3567 498.545 30.7347 498.162 31.024C497.789 31.3133 497.373 31.486 496.916 31.542C497.392 31.5793 497.835 31.738 498.246 32.018C498.666 32.298 498.876 32.69 498.876 33.194C498.876 33.7727 498.596 34.2487 498.036 34.622C497.485 34.986 496.734 35.168 495.782 35.168ZM500.579 28.238H501.629V30.856H504.163C504.835 30.856 505.358 31.0567 505.731 31.458C506.105 31.85 506.291 32.34 506.291 32.928C506.291 33.516 506.1 34.0107 505.717 34.412C505.344 34.804 504.826 35 504.163 35H500.579V28.238ZM504.051 31.78H501.629V34.076H504.051C504.425 34.076 504.709 33.9733 504.905 33.768C505.111 33.5533 505.213 33.2733 505.213 32.928C505.213 32.5827 505.111 32.3073 504.905 32.102C504.709 31.8873 504.425 31.78 504.051 31.78ZM508.447 35H507.397V28.238H508.447V35ZM514.34 35H510.546V28.238H514.27C514.858 28.238 515.32 28.3967 515.656 28.714C516.001 29.0313 516.174 29.4513 516.174 29.974C516.174 30.3567 516.067 30.688 515.852 30.968C515.647 31.2387 515.39 31.4207 515.082 31.514C515.427 31.598 515.717 31.7987 515.95 32.116C516.193 32.4333 516.314 32.7833 516.314 33.166C516.314 33.7167 516.137 34.16 515.782 34.496C515.437 34.832 514.956 35 514.34 35ZM514.13 34.076C514.466 34.076 514.732 33.9827 514.928 33.796C515.124 33.6093 515.222 33.3573 515.222 33.04C515.222 32.7507 515.124 32.5033 514.928 32.298C514.732 32.0927 514.466 31.99 514.13 31.99H511.596V34.076H514.13ZM514.088 31.066C514.405 31.066 514.653 30.982 514.83 30.814C515.007 30.6367 515.096 30.408 515.096 30.128C515.096 29.8293 515.007 29.596 514.83 29.428C514.653 29.2507 514.405 29.162 514.088 29.162H511.596V31.066H514.088ZM518.298 28.238H519.348V30.856H521.882C522.554 30.856 523.077 31.0567 523.45 31.458C523.823 31.85 524.01 32.34 524.01 32.928C524.01 33.516 523.819 34.0107 523.436 34.412C523.063 34.804 522.545 35 521.882 35H518.298V28.238ZM521.77 31.78H519.348V34.076H521.77C522.143 34.076 522.428 33.9733 522.624 33.768C522.829 33.5533 522.932 33.2733 522.932 32.928C522.932 32.5827 522.829 32.3073 522.624 32.102C522.428 31.8873 522.143 31.78 521.77 31.78ZM526.166 35H525.116V28.238H526.166V35Z" fill="white"/>
<path d="M586.176 35H584.734L581.192 30.8L580.254 31.864V35H579.092V25.662H580.254V30.492L584.384 25.662H585.84L581.948 30.1L586.176 35ZM592.356 34.146C591.749 34.8273 590.942 35.168 589.934 35.168C588.926 35.168 588.114 34.8273 587.498 34.146C586.891 33.4647 586.588 32.62 586.588 31.612C586.588 30.604 586.891 29.764 587.498 29.092C588.114 28.4107 588.926 28.07 589.934 28.07C590.942 28.07 591.749 28.4107 592.356 29.092C592.972 29.764 593.28 30.604 593.28 31.612C593.28 32.62 592.972 33.4647 592.356 34.146ZM588.282 33.474C588.692 33.978 589.243 34.23 589.934 34.23C590.624 34.23 591.17 33.978 591.572 33.474C591.973 32.9607 592.174 32.34 592.174 31.612C592.174 30.884 591.973 30.268 591.572 29.764C591.17 29.26 590.624 29.008 589.934 29.008C589.243 29.008 588.692 29.2647 588.282 29.778C587.88 30.282 587.68 30.8933 587.68 31.612C587.68 32.34 587.88 32.9607 588.282 33.474ZM596.041 35H594.991V28.238H596.041V31.052H599.569V28.238H600.619V35H599.569V31.976H596.041V35ZM604.998 35H603.948V29.162H601.988V28.238H606.972V29.162H604.998V35ZM613.627 35H612.577V34.23C612.007 34.8553 611.261 35.168 610.337 35.168C609.711 35.168 609.161 34.9673 608.685 34.566C608.209 34.1647 607.971 33.6187 607.971 32.928C607.971 32.2187 608.204 31.6727 608.671 31.29C609.147 30.898 609.702 30.702 610.337 30.702C611.298 30.702 612.045 31.01 612.577 31.626V30.408C612.577 29.96 612.418 29.61 612.101 29.358C611.783 29.106 611.373 28.98 610.869 28.98C610.075 28.98 609.385 29.2927 608.797 29.918L608.307 29.19C609.025 28.4433 609.926 28.07 611.009 28.07C611.783 28.07 612.413 28.2567 612.899 28.63C613.384 29.0033 613.627 29.5773 613.627 30.352V35ZM610.715 34.412C611.555 34.412 612.175 34.132 612.577 33.572V32.298C612.175 31.738 611.555 31.458 610.715 31.458C610.229 31.458 609.828 31.598 609.511 31.878C609.203 32.1487 609.049 32.5033 609.049 32.942C609.049 33.3713 609.203 33.726 609.511 34.006C609.828 34.2767 610.229 34.412 610.715 34.412ZM621.682 35H620.338L617.902 31.962L616.782 33.068V35H615.732V28.238H616.782V31.836L620.338 28.238H621.668L618.672 31.304L621.682 35ZM625.205 35H624.155V29.162H622.195V28.238H627.179V29.162H625.205V35ZM628.556 28.238H629.606V30.856H632.14C632.812 30.856 633.335 31.0567 633.708 31.458C634.081 31.85 634.268 32.34 634.268 32.928C634.268 33.516 634.077 34.0107 633.694 34.412C633.321 34.804 632.803 35 632.14 35H628.556V28.238ZM632.028 31.78H629.606V34.076H632.028C632.401 34.076 632.686 33.9733 632.882 33.768C633.087 33.5533 633.19 33.2733 633.19 32.928C633.19 32.5827 633.087 32.3073 632.882 32.102C632.686 31.8873 632.401 31.78 632.028 31.78ZM636.424 35H635.374V28.238H636.424V35Z" fill="white"/>
<path d="M696.876 35H695.714V30.716H690.254V35H689.092V25.662H690.254V29.68H695.714V25.662H696.876V35ZM704.393 34.146C703.786 34.8273 702.979 35.168 701.971 35.168C700.963 35.168 700.151 34.8273 699.535 34.146C698.928 33.4647 698.625 32.62 698.625 31.612C698.625 30.604 698.928 29.764 699.535 29.092C700.151 28.4107 700.963 28.07 701.971 28.07C702.979 28.07 703.786 28.4107 704.393 29.092C705.009 29.764 705.317 30.604 705.317 31.612C705.317 32.62 705.009 33.4647 704.393 34.146ZM700.319 33.474C700.729 33.978 701.28 34.23 701.971 34.23C702.661 34.23 703.207 33.978 703.609 33.474C704.01 32.9607 704.211 32.34 704.211 31.612C704.211 30.884 704.01 30.268 703.609 29.764C703.207 29.26 702.661 29.008 701.971 29.008C701.28 29.008 700.729 29.2647 700.319 29.778C699.917 30.282 699.717 30.8933 699.717 31.612C699.717 32.34 699.917 32.9607 700.319 33.474ZM710.823 35H707.029V28.238H710.753C711.341 28.238 711.803 28.3967 712.139 28.714C712.484 29.0313 712.657 29.4513 712.657 29.974C712.657 30.3567 712.549 30.688 712.335 30.968C712.129 31.2387 711.873 31.4207 711.565 31.514C711.91 31.598 712.199 31.7987 712.433 32.116C712.675 32.4333 712.797 32.7833 712.797 33.166C712.797 33.7167 712.619 34.16 712.265 34.496C711.919 34.832 711.439 35 710.823 35ZM710.613 34.076C710.949 34.076 711.215 33.9827 711.411 33.796C711.607 33.6093 711.705 33.3573 711.705 33.04C711.705 32.7507 711.607 32.5033 711.411 32.298C711.215 32.0927 710.949 31.99 710.613 31.99H708.079V34.076H710.613ZM710.571 31.066C710.888 31.066 711.135 30.982 711.313 30.814C711.49 30.6367 711.579 30.408 711.579 30.128C711.579 29.8293 711.49 29.596 711.313 29.428C711.135 29.2507 710.888 29.162 710.571 29.162H708.079V31.066H710.571ZM720.156 34.146C719.55 34.8273 718.742 35.168 717.734 35.168C716.726 35.168 715.914 34.8273 715.298 34.146C714.692 33.4647 714.388 32.62 714.388 31.612C714.388 30.604 714.692 29.764 715.298 29.092C715.914 28.4107 716.726 28.07 717.734 28.07C718.742 28.07 719.55 28.4107 720.156 29.092C720.772 29.764 721.08 30.604 721.08 31.612C721.08 32.62 720.772 33.4647 720.156 34.146ZM716.082 33.474C716.493 33.978 717.044 34.23 717.734 34.23C718.425 34.23 718.971 33.978 719.372 33.474C719.774 32.9607 719.974 32.34 719.974 31.612C719.974 30.884 719.774 30.268 719.372 29.764C718.971 29.26 718.425 29.008 717.734 29.008C717.044 29.008 716.493 29.2647 716.082 29.778C715.681 30.282 715.48 30.8933 715.48 31.612C715.48 32.34 715.681 32.9607 716.082 33.474ZM725.774 35.168C724.776 35.168 723.964 34.832 723.338 34.16C722.713 33.4787 722.4 32.6293 722.4 31.612C722.4 30.5947 722.713 29.75 723.338 29.078C723.964 28.406 724.776 28.07 725.774 28.07C726.82 28.07 727.646 28.462 728.252 29.246L727.552 29.89C727.123 29.302 726.549 29.008 725.83 29.008C725.121 29.008 724.552 29.2507 724.122 29.736C723.702 30.2213 723.492 30.8467 723.492 31.612C723.492 32.3773 723.702 33.0073 724.122 33.502C724.552 33.9873 725.121 34.23 725.83 34.23C726.54 34.23 727.114 33.936 727.552 33.348L728.252 33.992C727.646 34.776 726.82 35.168 725.774 35.168ZM732.006 35H730.956V29.162H728.996V28.238H733.98V29.162H732.006V35ZM736.365 35H735.357V28.238H736.407V33.404L739.949 28.238H740.985V35H739.935V29.736L736.365 35Z" fill="white"/>
<path d="M798.348 35.168C796.976 35.168 795.861 34.7107 795.002 33.796C794.143 32.8813 793.714 31.7287 793.714 30.338C793.714 28.9473 794.143 27.7947 795.002 26.88C795.861 25.9653 796.976 25.508 798.348 25.508C799.711 25.508 800.821 25.9653 801.68 26.88C802.548 27.7947 802.982 28.9473 802.982 30.338C802.982 31.7287 802.548 32.8813 801.68 33.796C800.821 34.7107 799.711 35.168 798.348 35.168ZM798.348 34.132C799.375 34.132 800.201 33.7773 800.826 33.068C801.461 32.3493 801.778 31.4393 801.778 30.338C801.778 29.2273 801.461 28.3173 800.826 27.608C800.201 26.8987 799.375 26.544 798.348 26.544C797.312 26.544 796.481 26.8987 795.856 27.608C795.231 28.3173 794.918 29.2273 794.918 30.338C794.918 31.4393 795.231 32.3493 795.856 33.068C796.481 33.7773 797.312 34.132 798.348 34.132ZM806.057 33.474C806.468 33.978 807.018 34.23 807.709 34.23C808.4 34.23 808.946 33.978 809.347 33.474C809.748 32.9607 809.949 32.3353 809.949 31.598C809.949 30.8793 809.748 30.268 809.347 29.764C808.946 29.26 808.4 29.008 807.709 29.008C807.018 29.008 806.468 29.26 806.057 29.764C805.656 30.268 805.455 30.8793 805.455 31.598C805.455 32.3353 805.656 32.9607 806.057 33.474ZM807.709 35.168C806.692 35.168 805.88 34.8087 805.273 34.09C804.666 33.3713 804.363 32.4427 804.363 31.304C804.363 29.6987 804.652 28.5133 805.231 27.748C805.81 26.9733 806.701 26.5067 807.905 26.348C808.624 26.236 809.118 26.1287 809.389 26.026C809.669 25.9233 809.809 25.802 809.809 25.662H810.831C810.831 25.9233 810.752 26.152 810.593 26.348C810.434 26.5347 810.206 26.684 809.907 26.796C809.618 26.908 809.342 26.9967 809.081 27.062C808.829 27.118 808.526 27.1693 808.171 27.216C807.238 27.3467 806.561 27.6033 806.141 27.986C805.73 28.3687 805.46 28.8773 805.329 29.512C805.945 28.5507 806.794 28.07 807.877 28.07C808.81 28.07 809.571 28.4107 810.159 29.092C810.747 29.7733 811.041 30.6087 811.041 31.598C811.041 32.606 810.738 33.4553 810.131 34.146C809.524 34.8273 808.717 35.168 807.709 35.168ZM818.211 34.146C817.604 34.8273 816.797 35.168 815.789 35.168C814.781 35.168 813.969 34.8273 813.353 34.146C812.746 33.4647 812.443 32.62 812.443 31.612C812.443 30.604 812.746 29.764 813.353 29.092C813.969 28.4107 814.781 28.07 815.789 28.07C816.797 28.07 817.604 28.4107 818.211 29.092C818.827 29.764 819.135 30.604 819.135 31.612C819.135 32.62 818.827 33.4647 818.211 34.146ZM814.137 33.474C814.548 33.978 815.098 34.23 815.789 34.23C816.48 34.23 817.026 33.978 817.427 33.474C817.828 32.9607 818.029 32.34 818.029 31.612C818.029 30.884 817.828 30.268 817.427 29.764C817.026 29.26 816.48 29.008 815.789 29.008C815.098 29.008 814.548 29.2647 814.137 29.778C813.736 30.282 813.535 30.8933 813.535 31.612C813.535 32.34 813.736 32.9607 814.137 33.474ZM831.358 35H830.308V29.694L828.11 35H827.718L825.506 29.694V35H824.456V28.238H825.842L827.914 33.25L829.958 28.238H831.358V35ZM834.502 35H833.452V28.238H834.502V31.052H838.03V28.238H839.08V35H838.03V31.976H834.502V35ZM844.229 35.168C843.221 35.168 842.395 34.8413 841.751 34.188C841.107 33.5253 840.785 32.6667 840.785 31.612C840.785 30.6227 841.102 29.7873 841.737 29.106C842.372 28.4153 843.165 28.07 844.117 28.07C845.116 28.07 845.904 28.4153 846.483 29.106C847.071 29.7873 847.365 30.6507 847.365 31.696V31.962H841.891C841.938 32.6247 842.18 33.18 842.619 33.628C843.058 34.076 843.627 34.3 844.327 34.3C845.167 34.3 845.862 34.0153 846.413 33.446L846.917 34.132C846.226 34.8227 845.33 35.168 844.229 35.168ZM846.329 31.192C846.32 30.6133 846.124 30.0953 845.741 29.638C845.358 29.1713 844.812 28.938 844.103 28.938C843.431 28.938 842.899 29.1667 842.507 29.624C842.124 30.0813 841.919 30.604 841.891 31.192H846.329Z" fill="white"/>
<path d="M900.092 25.662H906.154V26.698H901.254V29.372H903.844C904.74 29.372 905.449 29.6427 905.972 30.184C906.504 30.7253 906.77 31.3927 906.77 32.186C906.77 32.9793 906.509 33.6467 905.986 34.188C905.463 34.7293 904.749 35 903.844 35H900.092V25.662ZM903.704 30.408H901.254V33.964H903.704C904.255 33.964 904.703 33.8007 905.048 33.474C905.393 33.138 905.566 32.7087 905.566 32.186C905.566 31.6633 905.393 31.2387 905.048 30.912C904.703 30.576 904.255 30.408 903.704 30.408ZM907.332 35.168V34.3C907.649 34.3 907.911 34.09 908.116 33.67C908.321 33.25 908.489 32.55 908.62 31.57L909.054 28.238H913.758V35H912.708V29.162H909.978L909.67 31.696C909.521 32.9373 909.259 33.8287 908.886 34.37C908.513 34.902 907.995 35.168 907.332 35.168ZM921.231 34.146C920.624 34.8273 919.817 35.168 918.809 35.168C917.801 35.168 916.989 34.8273 916.373 34.146C915.766 33.4647 915.463 32.62 915.463 31.612C915.463 30.604 915.766 29.764 916.373 29.092C916.989 28.4107 917.801 28.07 918.809 28.07C919.817 28.07 920.624 28.4107 921.231 29.092C921.847 29.764 922.155 30.604 922.155 31.612C922.155 32.62 921.847 33.4647 921.231 34.146ZM917.157 33.474C917.567 33.978 918.118 34.23 918.809 34.23C919.499 34.23 920.045 33.978 920.447 33.474C920.848 32.9607 921.049 32.34 921.049 31.612C921.049 30.884 920.848 30.268 920.447 29.764C920.045 29.26 919.499 29.008 918.809 29.008C918.118 29.008 917.567 29.2647 917.157 29.778C916.755 30.282 916.555 30.8933 916.555 31.612C916.555 32.34 916.755 32.9607 917.157 33.474ZM928.598 28.238V29.162H924.916V35H923.866V28.238H928.598Z" fill="white"/>
<rect x="1143" y="13" width="155" height="36" rx="3" fill="#018ABE"/>
<path d="M1161.74 35.156C1161 35.156 1160.31 35.026 1159.69 34.766C1159.07 34.4973 1158.62 34.1593 1158.31 33.752L1159.13 32.751C1159.41 33.0717 1159.79 33.3273 1160.26 33.518C1160.74 33.7087 1161.22 33.804 1161.69 33.804C1162.31 33.804 1162.79 33.687 1163.14 33.453C1163.49 33.2103 1163.67 32.8853 1163.67 32.478C1163.67 31.6633 1162.97 31.256 1161.58 31.256H1159.83V29.917H1161.58C1162.16 29.917 1162.62 29.8217 1162.98 29.631C1163.34 29.4403 1163.53 29.1543 1163.53 28.773C1163.53 28.383 1163.34 28.084 1162.98 27.876C1162.62 27.6593 1162.16 27.551 1161.6 27.551C1160.65 27.551 1159.85 27.8717 1159.21 28.513L1158.43 27.564C1158.78 27.1567 1159.24 26.8273 1159.82 26.576C1160.41 26.3247 1161.05 26.199 1161.74 26.199C1162.71 26.199 1163.49 26.4113 1164.11 26.836C1164.73 27.2607 1165.05 27.8283 1165.05 28.539C1165.05 29.0763 1164.86 29.5227 1164.47 29.878C1164.1 30.2247 1163.66 30.4413 1163.16 30.528C1163.66 30.5713 1164.11 30.7793 1164.54 31.152C1164.96 31.5247 1165.18 32.0187 1165.18 32.634C1165.18 33.3707 1164.85 33.9773 1164.2 34.454C1163.56 34.922 1162.74 35.156 1161.74 35.156ZM1171.87 35H1170.5V34.324C1170.02 34.8787 1169.34 35.156 1168.47 35.156C1167.9 35.156 1167.39 34.974 1166.95 34.61C1166.51 34.2373 1166.29 33.726 1166.29 33.076C1166.29 32.4087 1166.51 31.9017 1166.94 31.555C1167.38 31.2083 1167.89 31.035 1168.47 31.035C1169.37 31.035 1170.04 31.3037 1170.5 31.841V30.905C1170.5 30.541 1170.37 30.255 1170.1 30.047C1169.83 29.839 1169.47 29.735 1169.03 29.735C1168.33 29.735 1167.71 29.9993 1167.17 30.528L1166.61 29.579C1167.32 28.903 1168.2 28.565 1169.25 28.565C1170.02 28.565 1170.65 28.747 1171.14 29.111C1171.62 29.475 1171.87 30.0513 1171.87 30.84V35ZM1169.01 34.22C1169.69 34.22 1170.19 34.0033 1170.5 33.57V32.621C1170.19 32.1877 1169.69 31.971 1169.01 31.971C1168.62 31.971 1168.3 32.075 1168.04 32.283C1167.79 32.491 1167.67 32.764 1167.67 33.102C1167.67 33.44 1167.79 33.713 1168.04 33.921C1168.3 34.1203 1168.62 34.22 1169.01 34.22ZM1179.25 35H1177.89V29.917H1175V35H1173.64V28.721H1179.25V35ZM1182.34 35H1181.02V28.721H1182.39V32.946L1185.28 28.721H1186.64V35H1185.28V30.658L1182.34 35ZM1191.27 35.156C1190.32 35.156 1189.54 34.8483 1188.93 34.233C1188.33 33.609 1188.02 32.816 1188.02 31.854C1188.02 30.9007 1188.33 30.1163 1188.93 29.501C1189.54 28.877 1190.32 28.565 1191.27 28.565C1192.32 28.565 1193.12 28.9377 1193.68 29.683L1192.78 30.515C1192.43 30.021 1191.95 29.774 1191.34 29.774C1190.77 29.774 1190.31 29.969 1189.96 30.359C1189.61 30.7403 1189.44 31.2387 1189.44 31.854C1189.44 32.4693 1189.61 32.972 1189.96 33.362C1190.31 33.752 1190.77 33.947 1191.34 33.947C1191.94 33.947 1192.42 33.7 1192.78 33.206L1193.68 34.038C1193.12 34.7833 1192.32 35.156 1191.27 35.156ZM1200.08 35H1198.71V34.324C1198.22 34.8787 1197.55 35.156 1196.68 35.156C1196.11 35.156 1195.6 34.974 1195.16 34.61C1194.72 34.2373 1194.5 33.726 1194.5 33.076C1194.5 32.4087 1194.71 31.9017 1195.15 31.555C1195.59 31.2083 1196.1 31.035 1196.68 31.035C1197.57 31.035 1198.25 31.3037 1198.71 31.841V30.905C1198.71 30.541 1198.58 30.255 1198.31 30.047C1198.04 29.839 1197.68 29.735 1197.24 29.735C1196.54 29.735 1195.92 29.9993 1195.38 30.528L1194.82 29.579C1195.53 28.903 1196.41 28.565 1197.46 28.565C1198.23 28.565 1198.86 28.747 1199.35 29.111C1199.83 29.475 1200.08 30.0513 1200.08 30.84V35ZM1197.22 34.22C1197.9 34.22 1198.4 34.0033 1198.71 33.57V32.621C1198.4 32.1877 1197.9 31.971 1197.22 31.971C1196.83 31.971 1196.5 32.075 1196.25 32.283C1196 32.491 1195.88 32.764 1195.88 33.102C1195.88 33.44 1196 33.713 1196.25 33.921C1196.5 34.1203 1196.83 34.22 1197.22 34.22ZM1204.35 35H1202.99V29.917H1201.19V28.721H1206.16V29.917H1204.35V35ZM1207.28 28.721H1208.64V30.996H1210.87C1211.53 30.996 1212.05 31.1867 1212.4 31.568C1212.76 31.9493 1212.95 32.426 1212.95 32.998C1212.95 33.5613 1212.76 34.038 1212.39 34.428C1212.02 34.8093 1211.52 35 1210.87 35H1207.28V28.721ZM1210.7 32.192H1208.64V33.804H1210.7C1210.97 33.804 1211.17 33.7303 1211.32 33.583C1211.48 33.4357 1211.56 33.2407 1211.56 32.998C1211.56 32.7553 1211.48 32.5603 1211.32 32.413C1211.17 32.2657 1210.97 32.192 1210.7 32.192ZM1217.16 35.156C1216.21 35.156 1215.43 34.8483 1214.82 34.233C1214.21 33.609 1213.91 32.816 1213.91 31.854C1213.91 30.9007 1214.21 30.1163 1214.82 29.501C1215.43 28.877 1216.21 28.565 1217.16 28.565C1218.21 28.565 1219.01 28.9377 1219.56 29.683L1218.67 30.515C1218.32 30.021 1217.84 29.774 1217.22 29.774C1216.65 29.774 1216.19 29.969 1215.85 30.359C1215.5 30.7403 1215.33 31.2387 1215.33 31.854C1215.33 32.4693 1215.5 32.972 1215.85 33.362C1216.19 33.752 1216.65 33.947 1217.22 33.947C1217.82 33.947 1218.3 33.7 1218.67 33.206L1219.56 34.038C1219.01 34.7833 1218.21 35.156 1217.16 35.156ZM1222.1 35H1220.54L1222.09 32.66C1221.65 32.5647 1221.3 32.348 1221.02 32.01C1220.75 31.672 1220.62 31.243 1220.62 30.723C1220.62 30.1597 1220.8 29.6873 1221.16 29.306C1221.54 28.916 1222.05 28.721 1222.7 28.721H1226.29V35H1224.92V32.725H1223.48L1222.1 35ZM1222.87 31.529H1224.92V29.917H1222.87C1222.61 29.917 1222.4 29.995 1222.24 30.151C1222.09 30.2983 1222.01 30.489 1222.01 30.723C1222.01 30.9657 1222.08 31.1607 1222.23 31.308C1222.39 31.4553 1222.6 31.529 1222.87 31.529ZM1232.75 35H1231.39V28.721H1232.75V31.191H1235.64V28.721H1237V35H1235.64V32.387H1232.75V35ZM1243.98 35H1242.61V34.324C1242.13 34.8787 1241.45 35.156 1240.58 35.156C1240.01 35.156 1239.5 34.974 1239.06 34.61C1238.62 34.2373 1238.4 33.726 1238.4 33.076C1238.4 32.4087 1238.62 31.9017 1239.05 31.555C1239.49 31.2083 1240 31.035 1240.58 31.035C1241.48 31.035 1242.15 31.3037 1242.61 31.841V30.905C1242.61 30.541 1242.48 30.255 1242.21 30.047C1241.94 29.839 1241.58 29.735 1241.14 29.735C1240.44 29.735 1239.82 29.9993 1239.28 30.528L1238.72 29.579C1239.43 28.903 1240.31 28.565 1241.36 28.565C1242.13 28.565 1242.76 28.747 1243.25 29.111C1243.73 29.475 1243.98 30.0513 1243.98 30.84V35ZM1241.12 34.22C1241.8 34.22 1242.3 34.0033 1242.61 33.57V32.621C1242.3 32.1877 1241.8 31.971 1241.12 31.971C1240.73 31.971 1240.4 32.075 1240.15 32.283C1239.9 32.491 1239.78 32.764 1239.78 33.102C1239.78 33.44 1239.9 33.713 1240.15 33.921C1240.4 34.1203 1240.73 34.22 1241.12 34.22ZM1251.94 35.156C1250.99 35.156 1250.21 34.8483 1249.6 34.233C1249 33.609 1248.69 32.816 1248.69 31.854C1248.69 30.9007 1249 30.1163 1249.6 29.501C1250.21 28.877 1250.99 28.565 1251.94 28.565C1252.99 28.565 1253.79 28.9377 1254.35 29.683L1253.45 30.515C1253.11 30.021 1252.62 29.774 1252.01 29.774C1251.44 29.774 1250.98 29.969 1250.63 30.359C1250.28 30.7403 1250.11 31.2387 1250.11 31.854C1250.11 32.4693 1250.28 32.972 1250.63 33.362C1250.98 33.752 1251.44 33.947 1252.01 33.947C1252.61 33.947 1253.09 33.7 1253.45 33.206L1254.35 34.038C1253.79 34.7833 1252.99 35.156 1251.94 35.156ZM1258.45 35.156C1257.49 35.156 1256.7 34.8527 1256.08 34.246C1255.46 33.6307 1255.16 32.8333 1255.16 31.854C1255.16 30.9353 1255.46 30.1597 1256.05 29.527C1256.66 28.8857 1257.42 28.565 1258.34 28.565C1259.27 28.565 1260.01 28.8857 1260.58 29.527C1261.15 30.1683 1261.44 30.9873 1261.44 31.984V32.309H1256.59C1256.64 32.803 1256.84 33.2147 1257.2 33.544C1257.55 33.8733 1258.02 34.038 1258.59 34.038C1258.91 34.038 1259.23 33.9773 1259.55 33.856C1259.88 33.7347 1260.15 33.5657 1260.37 33.349L1260.99 34.246C1260.36 34.8527 1259.51 35.156 1258.45 35.156ZM1260.11 31.347C1260.09 30.9137 1259.93 30.528 1259.63 30.19C1259.33 29.852 1258.9 29.683 1258.34 29.683C1257.8 29.683 1257.38 29.852 1257.08 30.19C1256.78 30.5193 1256.61 30.905 1256.57 31.347H1260.11ZM1267.98 35H1266.62V34.324C1266.13 34.8787 1265.46 35.156 1264.59 35.156C1264.02 35.156 1263.51 34.974 1263.07 34.61C1262.63 34.2373 1262.41 33.726 1262.41 33.076C1262.41 32.4087 1262.62 31.9017 1263.06 31.555C1263.5 31.2083 1264.01 31.035 1264.59 31.035C1265.48 31.035 1266.16 31.3037 1266.62 31.841V30.905C1266.62 30.541 1266.48 30.255 1266.21 30.047C1265.95 29.839 1265.59 29.735 1265.15 29.735C1264.45 29.735 1263.83 29.9993 1263.29 30.528L1262.73 29.579C1263.44 28.903 1264.32 28.565 1265.37 28.565C1266.14 28.565 1266.77 28.747 1267.25 29.111C1267.74 29.475 1267.98 30.0513 1267.98 30.84V35ZM1265.12 34.22C1265.81 34.22 1266.31 34.0033 1266.62 33.57V32.621C1266.31 32.1877 1265.81 31.971 1265.12 31.971C1264.73 31.971 1264.41 32.075 1264.16 32.283C1263.91 32.491 1263.78 32.764 1263.78 33.102C1263.78 33.44 1263.91 33.713 1264.16 33.921C1264.41 34.1203 1264.73 34.22 1265.12 34.22ZM1271.12 35H1269.75V28.721H1271.12V31.191H1274V28.721H1275.37V35H1274V32.387H1271.12V35ZM1280 35.156C1279.05 35.156 1278.27 34.8483 1277.66 34.233C1277.05 33.609 1276.75 32.816 1276.75 31.854C1276.75 30.9007 1277.05 30.1163 1277.66 29.501C1278.27 28.877 1279.05 28.565 1280 28.565C1281.05 28.565 1281.85 28.9377 1282.41 29.683L1281.51 30.515C1281.16 30.021 1280.68 29.774 1280.07 29.774C1279.49 29.774 1279.03 29.969 1278.69 30.359C1278.34 30.7403 1278.17 31.2387 1278.17 31.854C1278.17 32.4693 1278.34 32.972 1278.69 33.362C1279.03 33.752 1279.49 33.947 1280.07 33.947C1280.66 33.947 1281.14 33.7 1281.51 33.206L1282.41 34.038C1281.85 34.7833 1281.05 35.156 1280 35.156Z" fill="white"/>
</svg>
